<svg version="1.1" width="128" height="128" viewBox="0 0 128 128"
	xmlns="http://www.w3.org/2000/svg"
	xmlns:svg="http://www.w3.org/2000/svg">
	<path style="fill:#000000" d="M 35.058555,112.238 C 4.6809005,103.30206 13.418069,45.230406 48.470935,23.092518 67.418378,11.126125 93.530308,10.989543 104.20126,22.801013 119.06878,39.25758 107.77007,83.337507 87.735007,87.041189 77.211303,88.986602 76.34972,86.5712 79.662436,64.410165 81.978139,48.918833 80.236452,46.161513 73.051511,53.944203 67.0283,60.468515 63.881862,68.254839 62.462729,80.147706 61.987417,84.130988 61.481245,84.972235 58.922002,86.032308 54.70581,87.778712 54.686644,87.675768 56.429331,72.643814 58.97551,50.681139 58.38013,47.360416 52.667691,51.663345 46.677279,56.17566 41.44294,67.220312 40.380572,77.589628 c -0.694289,6.776657 -1.36324,7.86595 -5.462422,8.894779 -2.570662,0.645195 -2.570662,0.645195 -1.287943,-11.169606 C 36.411474,49.697241 36.398918,50 34.680102,50 c -7.361673,0 -12.297096,27.517576 -7.32493,40.840325 8.1508,21.839785 35.585631,22.950935 66.319777,2.686046 4.243617,-2.798074 5.377411,-3.168207 6.299928,-2.056642 0.898163,1.082219 -0.850872,2.659017 -8.674949,7.820685 C 71.853896,112.11927 50.986236,116.92331 35.058555,112.238 Z M 90.414775,80.856877 C 99.792531,76.584086 105.59254,51.641771 100.59213,37.090261 92.204331,12.681238 55.097349,14.31596 37.161948,39.884633 c -4.508091,6.426725 -4.612728,7.112061 -0.693822,4.544295 4.751417,-3.113248 6.805531,-0.51922 6.372906,8.047995 -0.368355,7.294495 -0.368355,7.294495 2.778328,2.658786 C 55.77682,40.171686 66.901479,39.176313 65.563897,53.351182 64.889314,60.5 64.889314,60.5 67.584193,56.5 81.301378,36.139632 90.277184,38.986456 86.944558,62.640457 c -2.877393,20.422894 -2.757201,21.053822 3.470217,18.21642 z" />
</svg>
